<svg id="svg" version="1.1" xmlns="http://www.w3.org/2000/svg" xmlns:xlink="http://www.w3.org/1999/xlink" width="400"
    height="311.8007939372068" viewBox="0, 0, 400,311.8007939372068">
    <g id="svgg">
        <path id="path0"
            d="M161.788 102.068 C 161.584 102.155,161.154 102.241,160.833 102.260 C 151.935 102.798,147.996 
103.555,142.583 105.766 C 123.470 113.573,113.883 136.202,118.335 163.000 C 120.812 177.915,129.400 
189.732,140.321 193.255 C 140.819 193.415,141.390 193.723,141.590 193.940 C 141.791 194.156,142.040 
194.333,142.144 194.333 C 142.248 194.333,142.333 194.406,142.333 194.495 C 142.333 194.584,142.458 
194.608,142.611 194.550 C 142.797 194.478,142.849 194.507,142.768 194.638 C 142.692 194.760,142.762 
194.833,142.952 194.833 C 143.120 194.833,144.120 195.056,145.175 195.328 C 146.230 195.600,147.428 
195.856,147.838 195.897 C 148.674 195.980,150.903 196.274,151.917 196.435 C 155.128 196.945,166.112 
196.517,166.611 195.862 C 167.027 195.317,166.837 175.742,166.417 175.782 C 160.316 176.372,157.397 
176.169,153.762 174.902 C 152.346 174.408,151.833 174.086,151.833 173.686 C 151.833 173.499,151.464 
173.135,150.879 172.747 C 149.439 171.791,147.142 169.408,146.440 168.143 C 143.643 163.104,142.532 
158.046,142.433 149.917 C 142.415 148.450,142.456 146.950,142.524 146.583 C 142.591 146.217,142.662 
145.257,142.681 144.451 C 142.699 143.645,142.813 142.558,142.934 142.035 C 143.055 141.511,143.194 
140.821,143.244 140.500 C 143.803 136.901,146.098 131.206,147.704 129.436 C 147.953 129.161,148.131 
128.909,148.099 128.877 C 148.067 128.845,148.688 128.210,149.478 127.467 C 150.269 126.723,151.039 
125.980,151.188 125.815 C 151.337 125.649,151.504 125.559,151.559 125.614 C 151.614 125.669,151.706 
125.591,151.764 125.441 C 151.822 125.290,151.973 125.167,152.101 125.167 C 152.229 125.167,152.333 
125.079,152.333 124.972 C 152.333 124.865,152.380 124.825,152.438 124.882 C 152.495 124.940,153.044 
124.727,153.657 124.410 C 154.270 124.093,154.856 123.833,154.958 123.833 C 155.061 123.833,155.356 
123.747,155.614 123.641 C 156.416 123.312,156.939 123.195,158.222 123.055 C 158.756 122.997,159.283 
122.867,159.392 122.767 C 159.656 122.524,160.053 122.445,159.919 122.663 C 159.861 122.756,159.893 122.833,159.990 122.833 C 160.087 122.833,160.167 122.747,160.167 122.641 C 160.167 122.351,164.468 122.600,166.616 123.014 C 170.524 123.768,179.739 127.288,179.627 127.984 C 179.594 128.185,179.725 128.250,180.161 128.250 C 180.794 128.250,180.651 128.482,181.683 125.771 C 181.888 125.232,182.056 124.689,182.056 124.563 C 182.056 124.436,182.112 124.333,182.181 124.333 C 182.250 124.333,182.359 124.090,182.423 123.792 C 182.488 123.494,182.643 123.048,182.770 122.801 C 182.896 122.553,183.025 122.216,183.056 122.051 C 183.086 121.885,183.194 121.563,183.294 121.333 C 183.630 120.567,184.078 119.251,184.024 119.185 C 183.995 119.150,184.042 119.075,184.127 119.019 C 184.253 118.936,184.882 117.279,185.052 116.583 C 185.074 116.492,185.150 116.324,185.221 116.211 C 185.459 115.831,185.983 114.167,185.866 114.164 C 185.802 114.163,185.842 114.103,185.954 114.032 C 186.066 113.961,186.181 113.755,186.209 113.576 C 186.237 113.397,186.306 113.175,186.363 113.083 C 187.039 111.989,188.238 107.833,187.798 108.105 C 187.726 108.150,187.667 108.102,187.667 108.000 C 187.667 107.898,187.598 107.856,187.514 107.908 C 187.430 107.960,187.337 107.932,187.306 107.847 C 187.275 107.762,187.137 107.667,187.000 107.637 C 186.862 107.608,186.706 107.523,186.652 107.450 C 186.598 107.377,186.391 107.304,186.193 107.290 C 185.995 107.275,185.833 107.199,185.833 107.121 C 185.833 107.044,185.758 107.027,185.667 107.083 C 185.575 107.140,185.500 107.113,185.500 107.023 C 185.500 106.890,184.708 106.533,184.125 106.403 C 184.056 106.388,183.963 106.356,183.917 106.333 C 183.871 106.310,183.777 106.276,183.708 106.256 C 183.640 106.236,183.168 106.029,182.660 105.794 C 181.666 105.336,180.500 104.970,180.500 105.117 C 180.500 105.167,180.406 105.130,180.292 105.036 C 179.987 104.785,178.143 104.162,177.988 104.257 C 177.916 104.302,177.812 104.267,177.758 104.180 C 177.704 104.093,177.530 104.023,177.372 104.026 C 177.213 104.029,176.933 103.988,176.750 103.936 C 176.567 103.884,175.892 103.688,175.250 103.502 C 174.608 103.316,173.783 103.127,173.417 103.083 C 173.050 103.039,172.412 102.934,172.000 102.851 C 171.588 102.767,170.912 102.654,170.500 102.599 C 170.087 102.544,169.563 102.461,169.333 102.415 C 169.104 102.368,168.617 102.294,168.250 102.249 C 167.883 102.204,167.208 102.119,166.750 102.061 C 165.426 101.892,162.196 101.897,161.788 102.068 M159.924 123.178 C 159.984 123.276,160.075 123.314,160.126 123.263 C 160.177 123.211,160.339 123.263,160.485 123.376 C 160.719 123.559,160.724 123.550,160.521 123.292 C 160.277 122.981,159.738 122.878,159.924 123.178 M161.601 123.454 C 161.546 123.510,161.500 123.631,161.500 123.722 C 161.500 123.814,161.549 123.840,161.610 123.779 C 161.670 123.719,161.813 123.748,161.928 123.843 C 162.043 123.938,162.176 123.953,162.224 123.875 C 162.330 123.704,161.746 123.310,161.601 123.454 M162.750 123.843 C 162.487 123.948,162.475 123.979,162.694 123.988 C 162.847 123.995,163.000 124.084,163.034 124.186 C 163.068 124.288,163.213 124.344,163.356 124.311 C 163.591 124.256,163.590 124.223,163.350 123.980 C 163.168 123.795,162.977 123.752,162.750 123.843 M163.947 124.275 C 163.777 124.446,163.810 124.701,163.988 124.590 C 164.074 124.538,164.191 124.572,164.250 124.667 C 164.309 124.761,164.426 124.796,164.512 124.743 C 164.597 124.690,164.667 124.726,164.667 124.823 C 164.667 124.921,164.892 125.000,165.167 125.000 C 165.442 125.000,165.667 125.070,165.667 125.155 C 165.667 125.314,166.314 125.593,166.542 125.533 C 166.610 125.515,166.667 125.583,166.667 125.684 C 166.667 125.786,166.779 125.826,166.917 125.773 C 167.054 125.720,167.167 125.754,167.167 125.848 C 167.167 125.943,167.236 125.977,167.322 125.924 C 167.407 125.871,167.524 125.904,167.582 125.997 C 167.639 126.090,167.832 126.167,168.010 126.167 C 168.188 126.167,168.333 126.246,168.333 126.343 C 168.333 126.440,168.408 126.473,168.500 126.417 C 168.592 126.360,168.667 126.398,168.667 126.500 C 168.667 126.602,168.742 126.640,168.833 126.583 C 168.925 126.527,169.000 126.552,169.000 126.641 C 169.000 126.874,169.839 127.129,170.409 127.068 C 170.680 127.039,170.984 127.084,171.085 127.168 C 171.187 127.252,171.790 127.363,172.426 127.414 C 174.180 127.556,174.750 127.616,174.750 127.661 C 174.750 127.701,175.466 127.788,176.621 127.889 C 176.917 127.915,177.211 127.988,177.274 128.052 C 177.337 128.115,177.508 128.166,177.653 128.164 C 177.825 128.163,177.772 128.078,177.500 127.921 C 176.677 127.445,176.420 127.371,176.125 127.526 C 175.932 127.627,175.833 127.617,175.833 127.496 C 175.833 127.396,175.758 127.360,175.667 127.417 C 175.575 127.473,175.412 127.465,175.304 127.398 C 175.196 127.332,174.764 127.275,174.345 127.273 C 173.926 127.271,173.508 127.177,173.417 127.064 C 173.325 126.952,172.987 126.819,172.667 126.769 C 172.090 126.679,171.207 126.439,169.583 125.931 C 169.125 125.788,168.581 125.669,168.375 125.668 C 168.169 125.667,168.000 125.608,168.000 125.536 C 168.000 125.401,166.647 124.953,166.110 124.911 C 165.941 124.898,165.744 124.792,165.673 124.677 C 165.601 124.561,165.252 124.455,164.896 124.441 C 164.541 124.428,164.207 124.359,164.155 124.289 C 164.103 124.219,164.009 124.213,163.947 124.275 M176.963 137.456 C 177.355 137.491,177.955 137.490,178.296 137.454 C 178.637 137.419,178.317 137.390,177.583 137.390 C 176.850 137.391,176.571 137.420,176.963 137.456 M258.667 138.670 C 258.346 138.745,252.123 138.891,244.838 138.996 C 237.552 139.100,231.580 139.200,231.566 139.218 C 231.532 139.259,228.553 143.817,226.425 147.083 C 222.780 152.679,222.028 153.832,217.184 161.250 C 216.466 162.350,215.368 164.037,214.745 165.000 C 214.122 165.962,212.248 168.813,210.581 171.333 C 207.420 176.112,205.648 178.969,204.664 180.874 C 204.104 181.958,203.673 182.316,203.661 181.708 C 203.535 175.780,203.716 161.122,203.921 160.495 C 204.312 159.306,204.209 138.945,203.812 138.869 C 203.663 138.840,203.406 138.952,203.241 139.117 C 202.898 139.460,197.769 139.610,185.114 139.647 C 180.897 139.660,178.361 139.730,178.156 139.839 C 177.838 140.009,177.833 140.742,177.833 189.414 C 177.833 236.285,177.818 238.826,177.542 238.996 C 177.232 239.186,181.424 239.142,194.083 238.821 C 201.998 238.621,203.865 238.535,204.034 238.366 C 204.106 238.294,204.184 231.338,204.207 222.909 C 204.246 209.161,204.276 207.639,204.499 208.125 C 204.636 208.423,204.809 208.667,204.884 208.667 C 204.959 208.667,204.977 208.736,204.925 208.820 C 204.873 208.904,204.940 209.083,205.074 209.217 C 205.208 209.351,205.271 209.507,205.214 209.563 C 205.158 209.620,205.211 209.667,205.333 209.667 C 205.456 209.667,205.509 209.713,205.452 209.770 C 205.329 209.893,206.128 211.529,206.397 211.706 C 206.499 211.773,206.526 211.829,206.455 211.831 C 206.329 211.833,206.945 213.169,207.147 213.333 C 207.204 213.379,207.265 213.492,207.283 213.583 C 207.366 214.009,207.972 214.974,208.089 214.869 C 208.161 214.803,208.173 214.832,208.116 214.933 C 208.014 215.112,217.164 233.554,217.554 233.953 C 217.662 234.065,217.939 234.191,218.167 234.232 C 218.396 234.274,218.583 234.320,218.583 234.334 C 218.583 234.348,218.696 234.384,218.833 234.415 C 218.971 234.446,219.884 234.737,220.862 235.062 C 221.840 235.386,222.815 235.681,223.028 235.717 C 223.242 235.753,223.529 235.830,223.667 235.889 C 224.400 236.204,225.899 236.656,225.970 236.585 C 226.016 236.540,226.136 236.572,226.239 236.657 C 226.341 236.742,226.648 236.848,226.921 236.892 C 227.194 236.936,227.435 236.988,227.458 237.007 C 227.481 237.026,227.575 237.060,227.667 237.083 C 227.758 237.106,227.871 237.144,227.917 237.167 C 227.963 237.190,228.069 237.218,228.153 237.229 C 228.237 237.241,228.357 237.301,228.419 237.364 C 228.482 237.426,228.638 237.437,228.766 237.387 C 228.895 237.338,229.000 237.384,229.000 237.489 C 229.000 237.595,229.094 237.666,229.208 237.648 C 229.323 237.629,229.540 237.668,229.691 237.735 C 229.842 237.801,234.754 237.701,240.608 237.511 C 246.461 237.322,252.923 237.117,254.967 237.057 C 258.214 236.960,258.703 236.911,258.834 236.665 C 259.003 236.350,259.119 236.596,256.617 232.000 C 255.694 230.304,254.755 228.579,254.531 228.167 C 254.307 227.754,253.673 226.554,253.123 225.500 C 252.573 224.446,251.983 223.384,251.811 223.141 C 251.640 222.898,251.500 222.660,251.500 222.612 C 251.500 222.564,250.649 220.963,249.609 219.054 C 248.570 217.145,247.436 215.058,247.090 214.417 C 246.745 213.775,246.406 213.213,246.337 213.167 C 246.268 213.121,246.156 212.896,246.087 212.667 C 246.019 212.438,245.746 211.893,245.481 211.456 C 245.217 211.019,245.000 210.625,245.000 210.581 C 245.000 210.513,241.844 204.679,240.538 202.333 C 240.094 201.535,239.065 199.625,238.338 198.250 C 238.096 197.792,237.811 197.267,237.704 197.083 C 237.597 196.900,236.598 195.063,235.483 193.000 C 234.368 190.938,233.268 188.912,233.038 188.500 C 232.808 188.088,232.341 187.225,232.000 186.583 C 231.659 185.942,231.110 184.909,230.780 184.289 C 230.169 183.143,230.145 182.779,230.656 182.380 C 230.800 182.269,230.855 182.175,230.780 182.172 C 230.704 182.169,230.765 182.045,230.914 181.896 C 231.288 181.521,241.831 165.617,241.820 165.443 C 241.815 165.366,241.920 165.216,242.053 165.110 C 242.317 164.898,244.954 160.980,245.116 160.558 C 245.171 160.415,245.391 160.108,245.605 159.878 C 245.819 159.647,245.953 159.392,245.904 159.312 C 245.854 159.232,245.882 159.167,245.965 159.167 C 246.109 159.167,248.167 156.160,248.167 155.950 C 248.167 155.895,248.340 155.663,248.552 155.435 C 248.764 155.206,249.083 154.740,249.260 154.399 C 249.438 154.059,249.751 153.595,249.955 153.369 C 250.160 153.143,250.287 152.892,250.237 152.812 C 250.188 152.732,250.220 152.667,250.309 152.667 C 250.397 152.667,250.777 152.198,251.151 151.625 C 251.526 151.052,252.012 150.321,252.230 150.000 C 252.449 149.679,252.595 149.360,252.554 149.292 C 252.513 149.223,252.549 149.167,252.633 149.167 C 252.717 149.167,253.060 148.754,253.395 148.250 C 253.730 147.746,253.969 147.333,253.926 147.333 C 253.884 147.333,254.034 147.134,254.260 146.891 C 254.485 146.647,254.640 146.417,254.602 146.380 C 254.565 146.343,254.700 146.134,254.903 145.916 C 255.105 145.698,255.416 145.233,255.594 144.885 C 255.771 144.536,256.001 144.175,256.105 144.083 C 256.480 143.751,258.313 140.869,258.214 140.769 C 258.157 140.713,258.192 140.667,258.292 140.667 C 258.491 140.667,259.272 139.492,259.207 139.292 C 259.185 139.223,259.242 139.167,259.333 139.167 C 259.425 139.167,259.500 139.017,259.500 138.833 C 259.500 138.470,259.512 138.472,258.667 138.670 M107.705 151.667 C 107.705 151.987,107.740 152.119,107.782 151.958 C 107.823 151.798,107.823 151.535,107.782 151.375 C 107.740 151.215,107.705 151.346,107.705 151.667 M117.601 181.597 C 117.539 181.760,117.576 181.836,117.698 181.795 C 117.947 181.712,118.084 181.333,117.865 181.333 C 117.776 181.333,117.657 181.452,117.601 181.597 M118.688 183.110 C 118.789 183.231,118.949 183.281,119.045 183.222 C 119.140 183.163,119.171 183.191,119.114 183.283 C 119.057 183.376,119.200 183.629,119.431 183.847 C 119.804 184.197,119.838 184.205,119.732 183.913 C 119.512 183.312,119.180 182.939,118.841 182.914 C 118.581 182.895,118.547 182.939,118.688 183.110 M121.782 186.036 C 121.930 186.199,122.171 186.327,122.317 186.320 C 122.490 186.312,122.510 186.277,122.375 186.223 C 122.260 186.177,122.167 186.049,122.167 185.938 C 122.167 185.828,122.020 185.738,121.840 185.738 C 121.537 185.738,121.532 185.760,121.782 186.036 M124.167 187.647 C 124.167 187.729,124.364 187.924,124.604 188.082 L 125.042 188.369 124.729 187.940 C 124.413 187.505,124.167 187.378,124.167 187.647 "
            stroke="none" fill="#2a29f5" fill-rule="evenodd"></path>
        <path id="path1"
            d="M148.803 101.078 C 148.774 101.103,147.887 101.170,146.833 101.227 C 145.779 101.284,144.467 101.407,143.917 101.500 C 143.367 101.593,142.542 101.714,142.083 101.769 C 137.750 102.287,129.453 105.316,127.484 107.098 C 127.301 107.264,127.051 107.414,126.930 107.432 C 126.610 107.479,125.833 108.013,125.833 108.186 C 125.833 108.267,125.750 108.333,125.649 108.333 C 125.439 108.333,124.193 109.257,123.868 109.654 C 123.749 109.798,123.603 109.917,123.544 109.917 C 123.405 109.917,122.754 110.442,122.096 111.084 C 121.814 111.360,121.377 111.718,121.125 111.880 C 120.873 112.042,120.667 112.241,120.667 112.322 C 120.667 112.403,120.142 112.998,119.500 113.644 C 118.858 114.289,118.333 114.946,118.333 115.103 C 118.333 115.260,118.288 115.344,118.233 115.288 C 118.108 115.163,116.408 117.250,116.126 117.875 C 116.012 118.127,115.858 118.333,115.783 118.333 C 115.708 118.333,115.693 118.408,115.750 118.500 C 115.807 118.592,115.771 118.667,115.671 118.667 C 115.571 118.667,115.441 118.798,115.382 118.958 C 115.323 119.119,115.107 119.475,114.901 119.750 C 113.258 121.952,110.026 129.848,109.579 132.750 C 109.551 132.933,109.512 133.102,109.493 133.125 C 109.453 133.173,109.430 133.254,109.286 133.833 C 108.990 135.031,108.698 136.446,108.702 136.667 C 108.706 136.907,108.574 137.872,108.394 138.917 C 108.253 139.737,108.223 140.406,108.318 140.583 C 108.496 140.916,108.462 141.142,108.247 141.059 C 108.005 140.966,107.978 142.078,108.213 142.447 C 108.282 142.555,108.269 142.687,108.184 142.740 C 108.098 142.792,107.990 142.741,107.944 142.626 C 107.893 142.500,107.854 142.532,107.846 142.708 C 107.835 142.960,107.992 143.034,108.438 142.989 C 108.495 142.984,108.628 143.152,108.733 143.364 C 108.869 143.638,109.092 143.764,109.504 143.797 C 110.046 143.841,110.492 143.987,111.220 144.362 C 111.387 144.448,111.969 144.546,112.513 144.581 C 113.115 144.620,113.604 144.747,113.763 144.906 C 114.072 145.215,114.030 145.210,114.593 144.996 C 114.905 144.878,115.107 144.881,115.258 145.007 C 115.378 145.106,115.800 145.164,116.196 145.135 L 116.917 145.083 117.437 141.500 C 120.911 117.590,134.907 103.815,157.417 102.153 C 158.517 102.072,159.567 101.977,159.750 101.941 C 159.933 101.905,160.415 101.866,160.819 101.855 C 162.017 101.820,161.539 101.711,159.667 101.591 C 158.704 101.530,157.692 101.451,157.417 101.417 C 154.994 101.114,149.036 100.880,148.803 101.078 M228.943 136.879 C 221.542 136.975,219.089 137.057,218.943 137.212 C 218.611 137.564,216.833 140.322,216.833 140.484 C 216.833 140.569,216.777 140.664,216.708 140.694 C 216.551 140.764,214.463 143.945,214.488 144.076 C 214.498 144.130,214.355 144.336,214.170 144.535 C 213.985 144.734,213.833 144.960,213.833 145.038 C 213.833 145.117,213.695 145.329,213.527 145.510 C 213.358 145.691,213.114 146.044,212.985 146.294 C 212.856 146.545,212.708 146.787,212.656 146.833 C 212.507 146.964,211.500 148.467,211.500 148.558 C 211.500 148.603,211.088 149.239,210.583 149.971 C 210.079 150.703,209.667 151.377,209.667 151.470 C 209.667 151.563,209.610 151.664,209.542 151.694 C 209.341 151.784,207.000 155.411,207.000 155.632 C 207.000 155.743,206.944 155.833,206.875 155.834 C 206.708 155.834,205.072 158.353,205.125 158.529 C 205.148 158.605,205.099 158.667,205.016 158.667 C 204.934 158.667,204.723 158.910,204.547 159.208 C 203.864 160.369,203.816 161.261,203.868 171.750 L 203.917 181.750 204.647 180.417 C 206.051 177.850,207.710 175.201,211.714 169.131 C 213.934 165.765,216.688 161.573,217.833 159.815 C 218.979 158.057,220.817 155.242,221.917 153.560 C 223.017 151.877,224.742 149.225,225.750 147.666 C 226.758 146.108,228.470 143.482,229.553 141.833 L 231.523 138.833 232.553 138.832 C 233.120 138.831,238.908 138.745,245.417 138.639 C 251.925 138.534,257.749 138.441,258.359 138.432 C 259.694 138.413,259.705 138.242,258.378 138.116 C 257.519 138.034,256.860 137.948,254.167 137.568 C 253.754 137.510,253.004 137.441,252.500 137.414 C 251.996 137.387,250.496 137.203,249.167 137.005 C 247.093 136.695,246.182 136.651,242.750 136.697 C 240.550 136.726,234.337 136.808,228.943 136.879 M173.042 137.460 C 168.203 137.497,167.167 137.544,167.167 137.732 C 167.167 138.053,167.998 138.229,172.667 138.898 L 176.750 139.484 189.500 139.341 C 200.641 139.216,202.313 139.165,202.750 138.933 L 203.250 138.669 202.667 138.655 C 202.346 138.647,201.935 138.614,201.754 138.580 C 201.572 138.546,200.897 138.473,200.254 138.417 C 199.610 138.362,198.971 138.284,198.833 138.245 C 198.696 138.206,198.058 138.100,197.417 138.010 C 195.553 137.747,194.944 137.652,194.500 137.551 C 194.032 137.445,181.964 137.394,173.042 137.460 M107.865 143.678 C 107.845 143.947,107.858 144.167,107.895 144.167 C 108.016 144.167,108.124 143.327,108.012 143.258 C 107.952 143.220,107.886 143.410,107.865 143.678 M107.778 144.444 C 107.717 144.506,107.677 144.899,107.689 145.319 L 107.711 146.083 107.831 145.250 C 107.959 144.363,107.953 144.269,107.778 144.444 M107.725 148.167 C 107.725 148.946,107.754 149.265,107.789 148.875 C 107.824 148.485,107.824 147.848,107.789 147.458 C 107.754 147.069,107.725 147.387,107.725 148.167 M107.709 150.583 C 107.711 150.950,107.745 151.080,107.785 150.873 C 107.824 150.666,107.823 150.366,107.781 150.206 C 107.739 150.047,107.707 150.217,107.709 150.583 M165.932 170.475 C 165.867 170.580,165.867 170.753,165.933 170.859 C 166.006 170.978,165.978 171.006,165.859 170.933 C 165.753 170.867,165.667 170.883,165.667 170.968 C 165.667 171.119,164.610 171.526,162.890 172.037 C 162.111 172.269,162.006 172.268,161.767 172.029 C 161.560 171.822,161.458 171.808,161.301 171.965 C 161.191 172.076,160.927 172.167,160.717 172.167 C 160.506 172.167,160.197 172.303,160.031 172.469 C 159.865 172.635,159.630 172.738,159.508 172.697 C 159.367 172.650,159.333 172.698,159.414 172.830 C 159.507 172.979,159.445 173.005,159.188 172.923 C 158.977 172.857,158.833 172.883,158.833 172.989 C 158.833 173.087,158.721 173.167,158.583 173.167 C 158.446 173.167,158.333 173.092,158.333 173.000 C 158.333 172.908,158.127 172.834,157.875 172.836 C 157.554 172.838,157.485 172.882,157.643 172.982 C 157.802 173.082,157.814 173.159,157.683 173.240 C 157.581 173.303,157.452 173.235,157.396 173.090 C 157.312 172.871,157.249 172.862,157.032 173.037 C 156.829 173.202,156.798 173.203,156.895 173.042 C 156.963 172.927,156.940 172.833,156.843 172.833 C 156.746 172.833,156.667 172.892,156.667 172.964 C 156.667 173.036,156.460 173.083,156.208 173.069 C 155.956 173.056,155.660 173.116,155.549 173.203 C 155.438 173.291,155.274 173.316,155.184 173.261 C 155.094 173.205,154.923 173.263,154.804 173.391 C 154.620 173.588,154.556 173.582,154.377 173.353 C 154.188 173.112,154.177 173.116,154.274 173.392 C 154.369 173.664,154.343 173.675,154.046 173.490 C 153.659 173.248,153.084 173.399,153.267 173.694 C 153.349 173.827,153.297 173.855,153.102 173.780 C 152.522 173.557,153.040 174.017,153.721 174.329 C 156.261 175.493,163.110 176.091,166.032 175.404 L 166.481 175.298 166.472 173.073 C 166.464 170.927,166.260 169.945,165.932 170.475 "
            stroke="none" fill="#9297fb" fill-rule="evenodd"></path>
        <path id="path2"
            d="M161.486 101.732 C 161.401 101.812,159.891 101.967,157.333 102.158 C 134.893 103.833,120.906 117.626,117.437 141.500 L 116.917 145.083 116.196 145.135 C 115.800 145.164,115.378 145.106,115.258 145.007 C 115.107 144.881,114.905 144.878,114.593 144.996 C 114.030 145.210,114.072 145.215,113.763 144.906 C 113.604 144.747,113.115 144.620,112.513 144.581 C 111.969 144.546,111.387 144.448,111.220 144.362 C 110.492 143.987,110.046 143.841,109.504 143.797 C 109.124 143.766,108.866 143.635,108.754 143.417 C 108.660 143.233,108.399 143.057,108.174 143.025 C 107.801 142.973,107.786 142.993,108.008 143.266 C 108.141 143.430,108.175 143.519,108.083 143.465 C 107.984 143.405,107.903 143.677,107.883 144.141 C 107.821 145.570,107.835 154.201,107.900 154.309 C 107.935 154.368,108.014 154.979,108.075 155.667 C 108.220 157.304,108.446 159.039,108.655 160.118 C 108.747 160.596,108.869 161.332,108.926 161.754 C 108.983 162.176,109.177 163.098,109.357 163.802 C 109.537 164.507,109.751 165.346,109.833 165.667 C 109.915 165.987,110.088 166.662,110.219 167.167 C 110.827 169.520,112.734 174.333,113.058 174.333 C 113.149 174.333,113.175 174.380,113.118 174.437 C 113.000 174.555,113.972 176.518,114.241 176.706 C 114.338 176.773,114.358 176.829,114.285 176.831 C 114.135 176.834,115.489 178.888,115.698 178.973 C 115.773 179.003,115.796 179.092,115.748 179.169 C 115.700 179.247,115.802 179.409,115.973 179.530 C 116.145 179.651,116.336 179.900,116.398 180.083 C 116.548 180.526,117.661 181.808,117.664 181.542 C 117.666 181.427,117.747 181.333,117.845 181.333 C 117.947 181.333,117.977 181.475,117.917 181.667 C 117.850 181.877,117.887 182.000,118.017 182.000 C 118.130 182.000,118.177 182.045,118.121 182.101 C 117.971 182.251,118.646 182.917,118.949 182.918 C 119.093 182.918,119.339 183.157,119.495 183.447 C 119.886 184.176,121.675 185.866,121.946 185.762 C 122.067 185.715,122.167 185.749,122.167 185.837 C 122.167 186.118,122.856 186.802,123.341 187.003 C 123.599 187.110,123.852 187.308,123.904 187.442 C 123.955 187.577,124.064 187.647,124.145 187.597 C 124.226 187.547,124.570 187.767,124.909 188.087 C 125.724 188.856,130.231 191.131,131.500 191.415 C 131.637 191.445,132.338 191.707,133.057 191.997 C 133.776 192.287,134.463 192.486,134.583 192.440 C 134.703 192.394,134.848 192.403,134.905 192.461 C 135.009 192.564,135.315 192.641,135.875 192.705 C 136.035 192.723,136.167 192.801,136.167 192.879 C 136.167 192.957,136.298 193.004,136.458 192.982 C 136.619 192.961,136.938 193.025,137.167 193.125 C 137.396 193.224,137.958 193.396,138.417 193.506 C 138.875 193.616,139.835 193.885,140.550 194.103 C 141.701 194.454,142.900 194.658,142.167 194.378 C 142.029 194.326,141.761 194.117,141.571 193.914 C 141.381 193.712,140.819 193.415,140.321 193.255 C 135.076 191.563,128.106 185.912,124.762 180.641 C 114.522 164.502,114.837 135.762,125.427 120.005 C 132.793 109.043,142.923 103.550,157.750 102.476 C 159.125 102.377,160.512 102.276,160.833 102.253 C 161.718 102.187,162.244 101.985,161.972 101.813 C 161.726 101.656,161.590 101.634,161.486 101.732 M159.361 122.778 C 159.142 123.012,159.352 123.080,160.060 123.006 C 160.275 122.983,160.331 123.040,160.241 123.195 C 160.171 123.317,160.172 123.363,160.244 123.298 C 160.317 123.233,160.596 123.294,160.866 123.434 C 161.214 123.614,161.418 123.637,161.567 123.513 C 161.718 123.388,161.869 123.425,162.104 123.644 C 162.334 123.858,162.537 123.910,162.784 123.819 C 163.053 123.719,163.207 123.783,163.435 124.087 C 163.678 124.410,163.781 124.447,163.982 124.284 C 164.188 124.117,164.209 124.136,164.111 124.399 C 164.018 124.647,164.039 124.675,164.212 124.531 C 164.482 124.307,165.513 124.418,165.681 124.689 C 165.748 124.798,165.941 124.898,166.110 124.911 C 166.647 124.953,168.000 125.401,168.000 125.536 C 168.000 125.608,168.169 125.667,168.375 125.668 C 168.581 125.669,169.125 125.788,169.583 125.931 C 171.203 126.438,172.090 126.679,172.667 126.770 C 172.987 126.821,173.377 127.024,173.531 127.221 C 173.686 127.419,174.023 127.597,174.280 127.617 C 174.602 127.642,174.675 127.608,174.514 127.509 C 174.385 127.429,174.187 127.400,174.074 127.443 C 173.960 127.487,173.829 127.461,173.782 127.386 C 173.680 127.220,175.037 127.234,175.308 127.401 C 175.414 127.466,175.588 127.465,175.695 127.399 C 175.826 127.318,175.855 127.370,175.783 127.557 C 175.688 127.805,175.715 127.810,176.047 127.600 C 176.431 127.357,177.277 127.520,177.101 127.804 C 177.054 127.881,177.105 127.945,177.216 127.946 C 177.326 127.947,177.585 128.002,177.792 128.068 C 178.014 128.140,178.167 128.120,178.167 128.020 C 178.167 127.907,178.333 127.909,178.669 128.026 C 179.183 128.205,179.667 128.126,179.667 127.863 C 179.667 127.537,173.985 125.168,170.486 124.035 C 166.989 122.903,160.167 121.981,160.167 122.641 C 160.167 122.747,160.087 122.833,159.990 122.833 C 159.893 122.833,159.852 122.771,159.899 122.694 C 160.040 122.467,159.586 122.537,159.361 122.778 M239.455 136.787 C 239.750 136.824,240.275 136.824,240.621 136.788 C 240.967 136.752,240.725 136.722,240.083 136.721 C 239.442 136.721,239.159 136.750,239.455 136.787 M184.375 137.457 C 185.085 137.488,186.248 137.488,186.958 137.457 C 187.669 137.426,187.088 137.400,185.667 137.400 C 184.246 137.400,183.665 137.426,184.375 137.457 M166.616 137.708 C 166.346 137.908,166.215 163.804,166.437 172.939 L 166.495 175.296 166.039 175.402 C 163.105 176.090,156.264 175.494,153.721 174.329 C 153.083 174.037,152.512 173.554,153.047 173.759 C 153.176 173.809,153.278 173.745,153.278 173.614 C 153.278 173.450,153.064 173.381,152.556 173.381 C 151.070 173.381,151.708 174.186,153.762 174.902 C 157.397 176.169,160.316 176.372,166.417 175.782 C 166.871 175.738,167.034 195.240,166.585 195.882 C 166.266 196.337,166.197 234.353,166.514 235.048 C 166.645 235.335,166.933 235.504,167.556 235.663 C 168.029 235.783,168.454 235.932,168.500 235.995 C 168.546 236.057,170.046 236.584,171.833 237.166 C 173.621 237.747,175.158 238.277,175.250 238.344 C 175.530 238.546,177.520 239.007,177.682 238.907 C 177.772 238.851,177.833 218.863,177.833 189.413 C 177.833 140.742,177.838 140.009,178.156 139.839 C 178.361 139.730,180.897 139.660,185.114 139.647 C 197.638 139.610,202.899 139.459,203.232 139.125 C 203.510 138.847,203.505 138.833,203.129 138.833 C 202.911 138.833,202.650 138.916,202.549 139.018 C 202.419 139.148,198.535 139.245,189.557 139.343 L 176.750 139.484 172.667 138.898 C 167.989 138.228,167.167 138.053,167.167 137.730 C 167.167 137.444,166.982 137.437,166.616 137.708 M254.083 138.519 C 252.250 138.575,248.681 138.631,246.152 138.644 C 243.623 138.656,239.289 138.716,236.520 138.777 L 231.486 138.887 229.564 141.819 C 228.508 143.431,226.791 146.063,225.751 147.667 C 223.769 150.721,221.174 154.700,218.414 158.917 C 217.514 160.292,215.753 162.992,214.499 164.917 C 213.246 166.842,211.030 170.217,209.574 172.417 C 208.118 174.617,206.309 177.504,205.553 178.833 C 204.798 180.162,204.105 181.362,204.013 181.500 C 203.818 181.794,203.855 161.000,204.051 160.333 C 204.118 160.104,204.062 160.202,203.926 160.550 C 203.720 161.076,203.536 175.768,203.661 181.708 C 203.673 182.316,204.104 181.958,204.664 180.874 C 205.648 178.969,207.420 176.112,210.581 171.333 C 212.248 168.813,214.122 165.962,214.745 165.000 C 215.368 164.037,216.466 162.350,217.184 161.250 C 222.090 153.737,222.979 152.373,226.589 146.833 C 227.574 145.321,229.098 142.986,229.976 141.644 L 231.572 139.204 238.161 139.101 C 257.176 138.803,258.980 138.754,259.200 138.532 C 259.378 138.353,259.239 138.323,258.417 138.365 C 257.867 138.394,255.917 138.463,254.083 138.519 M108.114 140.729 C 108.063 140.863,108.121 141.011,108.244 141.058 C 108.372 141.107,108.452 141.044,108.433 140.910 C 108.380 140.551,108.218 140.459,108.114 140.729 M142.372 147.500 C 142.372 147.821,142.406 147.952,142.448 147.792 C 142.490 147.631,142.490 147.369,142.448 147.208 C 142.406 147.048,142.372 147.179,142.372 147.500 M142.375 151.750 C 142.377 152.117,142.411 152.247,142.451 152.040 C 142.491 151.832,142.490 151.532,142.448 151.373 C 142.406 151.214,142.374 151.383,142.375 151.750 M163.959 171.139 C 162.851 171.517,162.168 171.837,162.167 171.979 C 162.167 172.173,162.122 172.173,161.875 171.979 C 161.615 171.775,161.606 171.779,161.798 172.024 C 161.995 172.276,162.084 172.278,162.881 172.040 C 164.612 171.525,165.667 171.119,165.667 170.968 C 165.667 170.883,165.741 170.859,165.831 170.915 C 165.926 170.974,165.954 170.907,165.897 170.759 C 165.842 170.616,165.787 170.506,165.774 170.514 C 165.761 170.522,164.944 170.803,163.959 171.139 M159.042 172.544 C 158.372 172.705,158.032 173.167,158.583 173.167 C 158.721 173.167,158.833 173.087,158.833 172.989 C 158.833 172.883,158.977 172.857,159.188 172.923 C 159.450 173.007,159.508 172.981,159.410 172.823 C 159.318 172.674,159.358 172.640,159.542 172.711 C 159.694 172.769,159.845 172.711,159.898 172.573 C 160.000 172.306,160.025 172.307,159.042 172.544 M154.191 173.315 C 154.033 173.415,154.020 173.493,154.149 173.572 C 154.250 173.635,154.334 173.588,154.336 173.468 C 154.338 173.314,154.374 173.306,154.461 173.440 C 154.550 173.577,154.643 173.566,154.798 173.398 C 155.051 173.126,154.588 173.063,154.191 173.315 "
            stroke="none" fill="#5758fa" fill-rule="evenodd"></path>
    </g>
</svg>
