<svg width="377" height="213" viewBox="0 0 377 213" fill="none" xmlns="http://www.w3.org/2000/svg">
<path d="M125.5 212.75H64.5C42.6667 212.75 26.5 207.083 16 195.75C5.66667 184.417 0.5 169.75 0.5 151.75V81.5C0.5 72.3333 1.83333 64.4167 4.5 57.75C7.16667 50.9167 11.0833 45.25 16.25 40.75L48.75 13.5C53.9167 9.16665 60.5 5.91666 68.5 3.75C76.5 1.58333 85.9167 0.499995 96.75 0.499995H157.75C161.75 0.499995 164.667 1.41666 166.5 3.24999C168.333 5.08333 169.25 8 169.25 12V42.25C169.25 44.4167 168.917 46.25 168.25 47.75C167.75 49.25 166.917 50.5 165.75 51.5L133.25 78.5C132.583 79.1667 131.5 79.75 130 80.25C128.667 80.75 127.167 81 125.5 81H94.75V123.25C94.75 126.75 95.8333 129.25 98 130.75C100.167 132.083 103.333 132.75 107.5 132.75H157.75C161.75 132.75 164.667 133.667 166.5 135.5C168.333 137.333 169.25 140.25 169.25 144.25V174C169.25 176.167 168.917 178 168.25 179.5C167.75 181 166.917 182.25 165.75 183.25L133.25 210.25C132.583 210.917 131.5 211.5 130 212C128.667 212.5 127.167 212.75 125.5 212.75ZM157.75 183C160.917 183 163.167 182.333 164.5 181C166 179.5 166.75 177.167 166.75 174V144.25C166.75 141.083 166 138.833 164.5 137.5C163.167 136 160.917 135.25 157.75 135.25H107.5C102.333 135.25 98.5 134.333 96 132.5C93.5 130.5 92.25 127.417 92.25 123.25V63.75C92.25 59.5833 93.5 56.5 96 54.5C98.5 52.3333 102.333 51.25 107.5 51.25H157.75C160.917 51.25 163.167 50.5833 164.5 49.25C166 47.75 166.75 45.4167 166.75 42.25V12C166.75 8.83333 166 6.58333 164.5 5.24999C163.167 3.74999 160.917 2.99999 157.75 2.99999H96.75C75.9167 2.99999 60.4167 7.24999 50.25 15.75C40.25 24.0833 35.25 36.9167 35.25 54.25V132C35.25 149.333 40.25 162.167 50.25 170.5C60.4167 178.833 75.9167 183 96.75 183H157.75ZM144 158V160.5H102.25C86.0833 160.5 75.3333 158 70 153C64.8333 148 62.25 139.75 62.25 128.25V58.25C62.25 46.4167 64.9167 38 70.25 33C75.5833 28 86.25 25.5 102.25 25.5H144V28H102.25C87.5833 28 77.6667 30.3333 72.5 35C67.3333 39.5 64.75 47.25 64.75 58.25V128.25C64.75 139.083 67.25 146.75 72.25 151.25C77.25 155.75 87.25 158 102.25 158H144ZM249.635 160.5H247.135V25.5H249.635V92H303.885L332.635 25.5H335.385L306.635 92H316.885C327.051 92 334.635 93.9167 339.635 97.75C344.635 101.583 347.135 107.833 347.135 116.5V160.5H344.635V116.5C344.635 108.5 342.301 102.833 337.635 99.5C332.968 96.1667 326.051 94.5 316.885 94.5H249.635V160.5ZM267.635 183C270.801 183 273.051 182.333 274.385 181C275.885 179.5 276.635 177.167 276.635 174V116.75H309.635C312.301 116.75 314.301 117.5 315.635 119C316.968 120.5 317.635 122.583 317.635 125.25V174C317.635 177.167 318.301 179.5 319.635 181C321.135 182.333 323.468 183 326.635 183H365.135C368.301 183 370.551 182.333 371.885 181C373.385 179.5 374.135 177.167 374.135 174V103.5C374.135 93.5 371.301 85.5 365.635 79.5C360.135 73.3333 352.718 70 343.385 69.5L368.885 11.25C370.051 8.58333 370.135 6.58333 369.135 5.24999C368.135 3.74999 366.218 2.99999 363.385 2.99999H324.885C321.718 2.99999 319.135 3.66666 317.135 5C315.135 6.16666 313.551 8.24999 312.385 11.25L286.635 69.5H276.635V12C276.635 8.83333 275.885 6.58333 274.385 5.24999C273.051 3.74999 270.801 2.99999 267.635 2.99999H228.885C225.718 2.99999 223.385 3.74999 221.885 5.24999C220.551 6.58333 219.885 8.83333 219.885 12V174C219.885 177.167 220.551 179.5 221.885 181C223.385 182.333 225.718 183 228.885 183H267.635ZM275.635 183.25L243.135 210.25C242.468 210.917 241.385 211.5 239.885 212C238.551 212.5 237.051 212.75 235.385 212.75H196.635C192.635 212.75 189.718 211.833 187.885 210C186.051 208.167 185.135 205.25 185.135 201.25V39.25C185.135 37.0833 185.385 35.25 185.885 33.75C186.551 32.25 187.468 31 188.635 30L220.885 2.75C221.718 2.08333 222.801 1.58332 224.135 1.24999C225.635 0.749992 227.218 0.499995 228.885 0.499995H267.635C271.635 0.499995 274.551 1.41666 276.385 3.24999C278.218 5.08333 279.135 8 279.135 12V34.75C279.635 34.0833 280.135 33.4167 280.635 32.75C281.135 31.9167 281.718 31.25 282.385 30.75L314.635 3.49999C315.801 2.49999 317.218 1.74999 318.885 1.24999C320.718 0.749992 322.718 0.499995 324.885 0.499995H363.385C367.551 0.499995 370.301 1.58333 371.635 3.75C372.968 5.74999 372.801 8.58332 371.135 12.25L347.135 67.25C356.135 68.4167 363.301 72.25 368.635 78.75C373.968 85.25 376.635 93.5 376.635 103.5V174C376.635 176.167 376.301 178 375.635 179.5C375.135 181 374.301 182.25 373.135 183.25L340.635 210.25C339.968 210.917 338.885 211.5 337.385 212C336.051 212.5 334.551 212.75 332.885 212.75H294.385C290.385 212.75 287.468 211.833 285.635 210C283.801 208.167 282.885 205.25 282.885 201.25V152.5C282.885 150.833 282.551 149.5 281.885 148.5C281.218 147.5 280.301 146.917 279.135 146.75V174C279.135 176.167 278.801 178 278.135 179.5C277.635 181 276.801 182.25 275.635 183.25Z" fill="#00008B"/>
</svg>
